<?xml version="1.0" encoding="UTF-8" standalone="no"?>
<svg width="1238px" height="1238px" viewBox="0 0 1238 1238" version="1.1" xmlns="http://www.w3.org/2000/svg" xmlns:xlink="http://www.w3.org/1999/xlink">
    <!-- Generator: Sketch 39.1 (31720) - http://www.bohemiancoding.com/sketch -->
    <title>Group 18</title>
    <desc>Created with Sketch.</desc>
    <defs></defs>
    <g id="temp" stroke="none" stroke-width="1" fill="none" fill-rule="evenodd">
        <g id="Group-18-Copy" transform="translate(-24.000000, -24.000000)">
            <circle id="Oval-33" stroke="#2D3345" stroke-width="4" stroke-dasharray="15" cx="643" cy="643" r="617"></circle>
            <circle id="Oval-33" stroke="#2D3345" stroke-width="4" stroke-dasharray="15" cx="643.5" cy="643.5" r="591.5"></circle>
            <path d="M930.383273,635.896335 C930.383273,628.858007 929.283537,622.479526 927.084065,616.76089 C924.884571,611.042232 921.585363,605.983443 917.18642,601.584477 C911.907652,597.185533 906.408972,593.886326 900.690337,591.686832 C894.971679,589.48736 888.153308,588.387624 880.235178,588.387624 L700.757827,588.387624 C703.397211,581.349296 706.696418,572.771343 710.655495,562.653742 C714.614548,552.536141 717.913756,541.318803 720.55314,529.00173 C724.072304,516.684657 726.931621,503.707738 729.131093,490.070995 C731.330565,476.43423 732.430301,462.137619 732.430301,447.181184 C732.430301,430.465145 730.670741,417.048336 727.151577,406.930735 C723.632414,396.813156 718.793558,388.675093 712.63501,382.516545 C706.476485,376.357997 699.878047,372.398943 692.83972,370.639362 C685.801392,368.87978 678.763065,368 671.724737,368 C667.325794,368 662.706872,368.659846 657.868038,369.979516 C653.029183,371.299208 648.410283,373.718635 644.011317,377.237799 C639.612374,379.877161 636.09321,383.616281 633.453826,388.455136 C630.814464,393.293992 629.494772,398.352782 629.494772,403.631527 C629.494772,408.910273 627.075344,428.705563 622.236489,463.017421 C617.397655,497.329256 601.341462,525.922479 574.067932,548.797021 C559.991277,560.234314 547.89416,569.912003 537.776559,577.830133 C527.65898,585.748262 518.641114,591.906788 510.722985,596.305754 C503.684657,601.584477 496.866286,605.103641 490.267848,606.863245 C483.669433,608.622804 476.411149,609.502606 468.49302,609.502606 L403.168557,609.502606 L365.557491,609.502606 L355,610.822299 L355,868.161142 L475.091457,868.161142 C479.490423,868.161142 486.748684,870.360614 496.866286,874.759579 C506.983887,879.158523 517.321422,883.557489 527.878913,887.956432 C536.676823,891.475596 545.474732,895.214716 554.272642,899.17377 C563.070551,903.132823 571.86846,906.432053 580.66637,909.071415 C589.464279,912.590579 597.822299,915.229963 605.740406,916.989544 C613.658535,918.749126 620.696863,919.628906 626.855388,919.628906 L801.054016,919.628906 C808.092344,919.628906 814.690759,918.309214 820.849307,915.669852 C827.007832,913.030491 832.72649,909.511327 838.005213,905.112361 C842.404179,900.713395 845.923343,895.434672 848.562704,889.276124 C851.202088,883.117576 852.52178,876.959051 852.52178,870.800526 C852.52178,864.641978 851.641978,859.143276 849.882396,854.304443 C848.122814,849.465587 845.483453,844.846688 841.964289,840.447722 C847.243035,839.567942 852.081868,837.588404 856.480834,834.50913 C860.8798,831.429879 864.838853,827.690759 868.358017,823.291793 C870.997379,818.892849 873.19685,814.27395 874.956455,809.435094 C876.716014,804.596238 877.595816,799.097559 877.595816,792.939011 C877.595816,787.660266 876.716014,782.38152 874.956455,777.102774 C873.19685,771.824029 870.997379,766.985173 868.358017,762.586229 C872.756961,760.826648 877.155927,758.40722 881.55487,755.327946 C885.953836,752.248694 889.912889,748.949464 893.432053,745.430301 C896.071437,741.031357 898.270909,736.192501 900.030491,730.913756 C901.790073,725.63501 902.669852,720.356264 902.669852,715.077519 C902.669852,708.918994 901.790073,703.420292 900.030491,698.581436 C898.270909,693.74258 896.071437,689.123681 893.432053,684.724737 C898.710799,682.965155 903.549655,680.765684 907.948598,678.1263 C912.347564,675.486915 916.306618,671.967752 919.825781,667.568808 C923.344945,663.169865 925.984307,658.331009 927.743911,653.052263 C929.50347,647.773518 930.383273,642.054882 930.383273,635.896335 L930.383273,635.896335 Z M880.235178,663.609755 L841.964289,663.609755 L841.964289,686.044407 L852.52178,686.044407 C856.040944,686.044407 859.560108,686.924209 863.079272,688.683791 C866.598435,690.443373 869.677687,692.642844 872.317071,695.282228 C874.956455,697.04181 877.155927,699.681172 878.915508,703.200336 C880.67509,706.719499 881.55487,710.678553 881.55487,715.077519 C881.55487,718.596683 880.67509,722.115846 878.915508,725.63501 C877.155927,729.154174 874.956455,732.233448 872.317071,734.872809 C869.677687,737.512193 866.598435,739.491709 863.079272,740.811401 C859.560108,742.131093 856.040944,742.790939 852.52178,742.790939 L819.529615,742.790939 L819.529615,765.225614 L828.767414,765.225614 C832.286577,765.225614 835.805741,766.105393 839.324905,767.864975 C842.844069,769.624557 845.923343,771.384139 848.562704,773.143721 C850.322309,775.783105 852.081868,778.862356 853.841472,782.38152 C855.601032,785.900684 856.480834,789.419847 856.480834,792.939011 C856.480834,796.458175 855.601032,799.977339 853.841472,803.496502 C852.081868,807.015666 850.322309,810.09494 848.562704,812.734302 C845.923343,815.373686 842.844069,817.353224 839.324905,818.672893 C835.805741,819.992585 832.286577,820.652431 828.767414,820.652431 L798.414632,820.652431 L798.414632,843.087106 L801.054016,843.087106 C805.45296,843.087106 809.412013,843.746952 812.931177,845.066621 C816.450341,846.386313 819.529615,848.365851 822.168999,851.005213 C824.80836,853.644597 826.787898,856.503915 828.107568,859.583189 C829.42726,862.66244 830.087106,866.40156 830.087106,870.800526 C830.087106,874.31969 829.42726,877.838853 828.107568,881.358017 C826.787898,884.877181 824.80836,887.516542 822.168999,889.276124 C819.529615,891.915508 816.450341,894.11498 812.931177,895.874562 C809.412013,897.634144 805.45296,898.513924 801.054016,898.513924 L773.340596,898.513924 L626.855388,898.513924 C621.576665,898.513924 615.418117,897.414188 608.37979,895.214716 C601.341462,893.015244 593.423355,890.595816 584.625423,887.956432 C576.707316,885.317071 568.569253,882.017841 560.211233,878.058787 C551.853214,874.099733 544.155063,870.360614 537.116735,866.84145 C522.160278,860.682925 509.623249,855.624113 499.50567,851.665059 C489.388068,847.706005 481.250005,845.726467 475.091457,845.726467 L377.434675,845.726467 L377.434675,631.937281 L396.570119,631.937281 L419.664639,631.937281 L445.398522,631.937281 L468.49302,631.937281 C478.170731,631.937281 487.40853,630.617589 496.20644,627.978227 C505.004349,625.338843 513.802258,621.37979 522.600168,616.101044 C531.398077,610.822299 540.855833,604.003905 550.973434,595.645908 C561.091035,587.287888 573.628042,576.950331 588.584499,564.63328 C603.540934,552.316184 615.198161,537.79964 623.556181,521.083623 C631.9142,504.367584 638.292682,488.091457 642.691648,472.25522 C647.090591,456.418983 649.729975,442.342329 650.609755,430.025255 C651.489534,417.708182 651.929447,408.910273 651.929447,403.631527 C651.929447,399.232584 654.568808,395.71342 659.847554,393.074036 C665.1263,390.434652 669.085353,389.114982 671.724737,389.114982 C677.883285,389.114982 685.801392,391.53441 695.479104,396.373244 C705.156793,401.212099 709.995649,418.148072 709.995649,447.181184 C709.995649,484.132404 703.837101,517.784393 691.520028,548.137197 C679.202955,578.489979 673.044429,593.66637 673.044429,593.66637 L665.1263,609.502606 L801.054016,609.502606 L801.054016,610.162452 L801.054016,609.502606 L880.235178,609.502606 C889.03311,609.502606 896.071437,612.141968 901.35016,617.420736 C906.628929,622.699459 909.26829,628.858007 909.26829,635.896335 C909.26829,640.295278 908.388488,644.034398 906.628929,647.113672 C904.869324,650.192946 902.669852,653.052263 900.030491,655.691625 C898.270909,658.331009 895.631525,660.310525 892.112361,661.630217 C888.593197,662.949909 884.634144,663.609755 880.235178,663.609755 L880.235178,663.609755 Z" id="Shape" fill="#6CBC35"></path>
        </g>
    </g>
</svg>